<svg width="90" height="79" viewBox="0 0 90 79" fill="none" xmlns="http://www.w3.org/2000/svg">
<path d="M41.3155 77.6237C33.8605 77.6237 28.042 60.7136 28.042 39.8033C28.042 18.893 34.0424 1.98285 41.3155 1.98285" stroke="black" stroke-width="2" stroke-miterlimit="10" stroke-linecap="round"/>
<path d="M1.49707 39.8034C1.49707 33.8031 20.9528 28.8937 44.9542 28.8937C68.9556 28.8937 88.4113 33.8031 88.4113 39.8034" stroke="black" stroke-width="2" stroke-miterlimit="10" stroke-linecap="round"/>
<path d="M44.9553 69.3574C61.1772 69.3574 74.3277 56.207 74.3277 39.9851C74.3277 23.7633 61.1772 10.6128 44.9553 10.6128C28.7335 10.6128 15.583 23.7633 15.583 39.9851C15.583 56.207 28.7335 69.3574 44.9553 69.3574Z" fill="white" stroke="#0864EF" stroke-width="2" stroke-miterlimit="10" stroke-linecap="round"/>
<path d="M52.7718 20.5296C53.8628 26.1663 54.5901 32.7122 54.5901 39.8035C54.5901 60.7138 48.5898 77.6239 41.1348 77.6239" stroke="black" stroke-width="2" stroke-miterlimit="10" stroke-linecap="round"/>
<path d="M41.3154 1.98285C43.3155 1.98285 45.1338 3.25567 46.7703 5.43762" stroke="black" stroke-width="2" stroke-miterlimit="10" stroke-linecap="round"/>
<path d="M42.9238 5.6197L47.1059 6.34704L47.8332 1.98312L49.4697 4.16509L48.7424 8.52898L44.3785 7.80167L42.9238 5.6197Z" fill="black"/>
<path d="M69.1375 48.8949C62.228 49.9859 53.8638 50.7132 44.9542 50.7132C20.9528 50.7132 1.49707 45.8038 1.49707 39.8034" stroke="black" stroke-width="2" stroke-miterlimit="10" stroke-linecap="round"/>
<path d="M66.6377 46.1674L70.0924 48.713L67.5468 52.3496L70.0924 51.9859L72.638 48.3493L69.1833 45.8037L66.6377 46.1674Z" fill="black"/>
</svg>
