<svg width="81" height="85" viewBox="0 0 81 85" fill="none" xmlns="http://www.w3.org/2000/svg">
<path d="M40.7162 65.8209C34.456 65.8209 29.334 60.6989 29.334 54.4387V30.7256C29.334 24.4654 34.456 19.3434 40.7162 19.3434C46.9765 19.3434 52.0985 24.4654 52.0985 30.7256V54.4387C52.0985 60.6989 46.9765 65.8209 40.7162 65.8209Z" stroke="#0864EF" stroke-width="2" stroke-miterlimit="10"/>
<path d="M57.4099 55.3872C57.4099 64.6827 49.8218 72.2708 40.5263 72.2708C31.2308 72.2708 23.6426 64.6827 23.6426 55.3872" stroke="#0864EF" stroke-width="2" stroke-miterlimit="10" stroke-linecap="round"/>
<path d="M40.7158 71.8917V83.843" stroke="#0864EF" stroke-width="2" stroke-miterlimit="10"/>
<path d="M34.2656 83.8429H46.9758" stroke="#0864EF" stroke-width="2" stroke-miterlimit="10" stroke-linecap="round"/>
<path d="M34.6445 36.2271H46.4062" stroke="#0864EF" stroke-width="2" stroke-miterlimit="10" stroke-linecap="round"/>
<path d="M34.6445 42.6771H46.4062" stroke="#0864EF" stroke-width="2" stroke-miterlimit="10" stroke-linecap="round"/>
<path d="M34.6445 48.9373H46.4062" stroke="#0864EF" stroke-width="2" stroke-miterlimit="10" stroke-linecap="round"/>
<path d="M11.1211 27.5008C11.1211 13.1969 24.4004 1.65631 40.9047 1.65631C57.4089 1.65631 70.6883 13.1969 70.6883 27.5008" stroke="#252437" stroke-width="2" stroke-miterlimit="10"/>
<path d="M10.7421 50.0756C7.89657 50.0756 5.62012 47.7991 5.62012 44.9536V32.0537C5.62012 29.2081 7.89657 26.9316 10.7421 26.9316C13.5877 26.9316 15.8642 29.2081 15.8642 32.0537V44.9536C15.8642 47.7991 13.5877 50.0756 10.7421 50.0756Z" stroke="#252437" stroke-width="2" stroke-miterlimit="10"/>
<path d="M70.4999 50.0756C67.6544 50.0756 65.3779 47.7991 65.3779 44.9536V32.0537C65.3779 29.2081 67.6544 26.9316 70.4999 26.9316C73.3455 26.9316 75.622 29.2081 75.622 32.0537V44.9536C75.4323 47.7991 73.3455 50.0756 70.4999 50.0756Z" stroke="#252437" stroke-width="2" stroke-miterlimit="10"/>
<path d="M75.6221 44.3845V34.3302C78.0882 34.3302 79.9853 36.2273 79.9853 38.6934V40.0213C79.9853 42.4875 78.0882 44.3845 75.6221 44.3845Z" stroke="#252437" stroke-width="2" stroke-miterlimit="10"/>
<path d="M5.62101 34.3302V44.3845C3.15486 44.3845 1.25781 42.4875 1.25781 40.0213V38.5037C1.25781 36.2273 3.15486 34.3302 5.62101 34.3302Z" stroke="#252437" stroke-width="2" stroke-miterlimit="10"/>
</svg>
