<svg width="92" height="72" viewBox="0 0 92 72" fill="none" xmlns="http://www.w3.org/2000/svg">
<path d="M59.6775 3.66102C58.0009 3.10218 56.1847 2.82275 54.2287 2.82275C47.3829 2.82275 41.0959 6.59496 37.4634 12.4628C33.9706 6.45525 27.963 2.82275 21.1171 2.82275C10.7785 2.82275 2.5355 11.3452 1.41781 22.9412C1.41781 23.6398 1.13838 26.2943 2.11637 30.765C3.65319 37.1918 7.14598 42.9199 12.1756 47.5304L37.4634 70.4431L63.1703 47.5304C66.3836 44.5965 68.8984 41.2434 70.8544 37.4712" stroke="#0864EF" stroke-width="2" stroke-miterlimit="10"/>
<path d="M73.3689 34.5373C82.6282 34.5373 90.1343 27.0312 90.1343 17.7719C90.1343 8.51264 82.6282 1.00653 73.3689 1.00653C64.1096 1.00653 56.6035 8.51264 56.6035 17.7719C56.6035 27.0312 64.1096 34.5373 73.3689 34.5373Z" stroke="#252437" stroke-width="2" stroke-miterlimit="10"/>
<path d="M73.3711 8.6907V26.8532" stroke="#252437" stroke-width="2" stroke-miterlimit="10"/>
<path d="M82.4516 17.772H64.2891" stroke="#252437" stroke-width="2" stroke-miterlimit="10"/>
</svg>
