<svg width="95" height="82" viewBox="0 0 95 82" fill="none" xmlns="http://www.w3.org/2000/svg">
<path d="M13.4121 32.7648V7.02136C13.4121 3.65305 16.1789 1.00653 19.4269 1.00653H50.5837C53.952 1.00653 56.5986 3.77335 56.5986 7.02136V22.7802" stroke="#0864EF" stroke-width="2" stroke-miterlimit="10"/>
<path d="M56.7197 62.2375V74.2672C56.7197 77.6355 53.9528 80.282 50.7048 80.282H19.548C16.1797 80.282 13.5332 77.5152 13.5332 74.2672V59.8316" stroke="#0864EF" stroke-width="2" stroke-miterlimit="10"/>
<path d="M14.0137 7.50256H56.7189" stroke="#0864EF" stroke-width="2" stroke-miterlimit="10"/>
<path d="M14.0137 71.2597H56.7189" stroke="#0864EF" stroke-width="2" stroke-miterlimit="10"/>
<path d="M29.0508 4.24862H39.8775" stroke="#0864EF" stroke-width="2" stroke-miterlimit="10" stroke-linecap="round"/>
<path d="M35.3669 78.1847C36.6956 78.1847 37.7728 77.1076 37.7728 75.7788C37.7728 74.45 36.6956 73.3729 35.3669 73.3729C34.0381 73.3729 32.9609 74.45 32.9609 75.7788C32.9609 77.1076 34.0381 78.1847 35.3669 78.1847Z" fill="#4F95FF"/>
<path d="M93.4092 28.4342V56.2227C93.4092 58.1474 91.8453 59.7113 89.9206 59.7113H54.5534L47.5762 65.9667V28.4342C47.5762 26.5094 49.14 24.9456 51.0648 24.9456H89.9206C91.9656 24.9456 93.4092 26.5094 93.4092 28.4342Z" stroke="#252437" stroke-width="2" stroke-miterlimit="10"/>
<path d="M62.2532 45.1553C63.7812 45.1553 65.02 43.9166 65.02 42.3885C65.02 40.8605 63.7812 39.6217 62.2532 39.6217C60.7251 39.6217 59.4863 40.8605 59.4863 42.3885C59.4863 43.9166 60.7251 45.1553 62.2532 45.1553Z" fill="#252437"/>
<path d="M70.5539 45.1554C72.082 45.1554 73.3208 43.9166 73.3208 42.3885C73.3208 40.8605 72.082 39.6217 70.5539 39.6217C69.0259 39.6217 67.7871 40.8605 67.7871 42.3885C67.7871 43.9166 69.0259 45.1554 70.5539 45.1554Z" fill="#252437"/>
<path d="M78.8547 45.1554C80.3828 45.1554 81.6215 43.9166 81.6215 42.3885C81.6215 40.8605 80.3828 39.6217 78.8547 39.6217C77.3266 39.6217 76.0879 40.8605 76.0879 42.3885C76.0879 43.9166 77.3266 45.1554 78.8547 45.1554Z" fill="#252437"/>
<path d="M1.98438 38.0579V54.5385C1.98438 56.1023 3.18734 57.3053 4.7512 57.3053H33.1412L38.6748 62.3578V38.0579C38.6748 36.494 37.4718 35.291 35.908 35.291H4.7512C3.18734 35.291 1.98438 36.494 1.98438 38.0579Z" stroke="#252437" stroke-width="2" stroke-miterlimit="10"/>
<path d="M6.19531 40.5841H33.8635" stroke="#252437" stroke-width="2" stroke-miterlimit="10" stroke-linecap="round"/>
<path d="M6.19531 45.7569H33.8635" stroke="#252437" stroke-width="2" stroke-miterlimit="10" stroke-linecap="round"/>
<path d="M6.19531 50.8094H24.2398" stroke="#252437" stroke-width="2" stroke-miterlimit="10" stroke-linecap="round"/>
</svg>
