<svg width="84" height="67" viewBox="0 0 84 67" fill="none" xmlns="http://www.w3.org/2000/svg">
<g clip-path="url(#clip0)">
<mask id="path-2-inside-1" fill="white">
<path d="M6.84237 44.6596L1.97605 22.7082C1.13141 18.7685 3.54184 14.9857 7.48453 14.1418L63.5881 1.77848C67.4185 0.933048 71.3167 3.34321 72.1613 7.28281L73.746 14.5994"/>
</mask>
<path d="M4.88977 45.0924C5.12883 46.1708 6.19684 46.8512 7.27523 46.6122C8.35362 46.3731 9.03402 45.3051 8.79496 44.2267L4.88977 45.0924ZM1.97605 22.7082L0.0204477 23.1274L0.0234587 23.141L1.97605 22.7082ZM7.48453 14.1418L7.90314 16.0975L7.91493 16.0949L7.48453 14.1418ZM63.5881 1.77848L64.0185 3.73162L64.0192 3.73148L63.5881 1.77848ZM72.1613 7.28281L70.2058 7.70208L70.2067 7.70617L72.1613 7.28281ZM71.7913 15.0228C72.0251 16.1023 73.0898 16.7879 74.1694 16.5541C75.2489 16.3203 75.9345 15.2556 75.7007 14.1761L71.7913 15.0228ZM8.79496 44.2267L3.92865 22.2753L0.0234587 23.141L4.88977 45.0924L8.79496 44.2267ZM3.93161 22.2889C3.31528 19.4142 5.05615 16.7069 7.90313 16.0975L7.06593 12.1861C2.02754 13.2645 -1.05246 18.1229 0.020495 23.1274L3.93161 22.2889ZM7.91493 16.0949L64.0185 3.73162L63.1577 -0.174657L7.05412 12.1887L7.91493 16.0949ZM64.0192 3.73148C66.7875 3.12047 69.5982 4.86813 70.2058 7.70208L74.1169 6.86354C73.0352 1.81829 68.0496 -1.25437 63.1571 -0.174512L64.0192 3.73148ZM70.2067 7.70617L71.7913 15.0228L75.7007 14.1761L74.116 6.85946L70.2067 7.70617Z" fill="#0864EF" mask="url(#path-2-inside-1)"/>
</g>
<path d="M75.6037 65.8682H19.1228C15.1437 65.8682 12.0488 62.6628 12.0488 58.7943V26.63C12.0488 22.6509 15.2542 19.5561 19.1228 19.5561H75.6037C79.5828 19.5561 82.6777 22.7614 82.6777 26.63V58.7943C82.6777 62.7734 79.4723 65.8682 75.6037 65.8682Z" stroke="#0864EF" stroke-width="2" stroke-miterlimit="10" stroke-linecap="round"/>
<path d="M66.6508 35.3442C65.5455 36.4495 63.998 37.1127 62.3401 37.1127C58.9136 37.1127 56.1504 34.3494 56.1504 30.923C56.1504 27.4966 58.9136 24.7333 62.3401 24.7333C63.998 24.7333 65.5455 25.3965 66.6508 26.5018" stroke="#252437" stroke-width="2" stroke-miterlimit="10" stroke-linecap="round"/>
<path d="M70.9612 37.1127C74.3797 37.1127 77.1509 34.3415 77.1509 30.923C77.1509 27.5045 74.3797 24.7333 70.9612 24.7333C67.5427 24.7333 64.7715 27.5045 64.7715 30.923C64.7715 34.3415 67.5427 37.1127 70.9612 37.1127Z" stroke="#252437" stroke-width="2" stroke-miterlimit="10" stroke-linecap="round"/>
<path d="M18.5449 50.5974L29.7595 50.5973" stroke="#0864EF" stroke-width="2" stroke-miterlimit="10" stroke-linecap="round"/>
<path d="M33.9863 50.5973H45.9056" stroke="#0864EF" stroke-width="2" stroke-miterlimit="10" stroke-linecap="round"/>
<path d="M50.1328 50.5973H60.9687" stroke="#0864EF" stroke-width="2" stroke-miterlimit="10" stroke-linecap="round"/>
<path d="M65.1973 50.5973H75.7334" stroke="#0864EF" stroke-width="2" stroke-miterlimit="10" stroke-linecap="round"/>
<path d="M55.5508 56.7169H64.3932" stroke="#0864EF" stroke-width="2" stroke-miterlimit="10" stroke-linecap="round"/>
<path d="M66.8809 56.7169H75.7233" stroke="#0864EF" stroke-width="2" stroke-miterlimit="10" stroke-linecap="round"/>
<defs>
<clipPath id="clip0">
<rect x="1.51562" y="0.160645" width="73" height="45" transform="rotate(0.783839 1.51562 0.160645)" fill="white"/>
</clipPath>
</defs>
</svg>
