<svg width="614" height="380" viewBox="0 0 614 380" fill="none" xmlns="http://www.w3.org/2000/svg">
<path d="M0.785156 298.702C13.0247 281.939 44.6946 258.472 73.4578 298.702C102.221 338.931 121.651 338.016 156.84 280.416C207.463 201.957 308.765 61.716 436.057 192.643C491.428 255.265 561.513 296.142 613.532 103.042" stroke="url(#paint0_linear)"/>
<g filter="url(#filter0_d)">
<rect x="280.816" y="20.878" width="59.7953" height="59.7953" rx="16" transform="rotate(14.7428 280.816 20.878)" fill="#3C3CED"/>
<rect x="347.016" y="38.2985" width="59.7953" height="59.7953" rx="16" transform="rotate(14.7428 347.016 38.2985)" fill="#3C3CED"/>
<rect x="263.158" y="87.9778" width="59.7953" height="59.7953" rx="16" transform="rotate(14.7428 263.158 87.9778)" fill="#3C3CED"/>
<rect x="329.359" y="105.398" width="59.7953" height="59.7953" rx="16" transform="rotate(14.7428 329.359 105.398)" fill="#3C3CED"/>
<rect x="245.5" y="155.078" width="59.7953" height="59.7953" rx="16" transform="rotate(14.7428 245.5 155.078)" fill="#3C3CED"/>
<rect x="311.703" y="172.498" width="59.7953" height="59.7953" rx="16" transform="rotate(14.7428 311.703 172.498)" fill="#3C3CED"/>
<rect x="227.844" y="222.178" width="59.7953" height="59.7953" rx="16" transform="rotate(14.7428 227.844 222.178)" fill="#3C3CED"/>
<rect x="294.045" y="239.598" width="59.7953" height="59.7953" rx="16" transform="rotate(14.7428 294.045 239.598)" fill="#3C3CED"/>
<mask id="path-10-inside-1" fill="white">
<path fill-rule="evenodd" clip-rule="evenodd" d="M309.881 70.8095C315.974 67.1461 319.156 59.7598 317.193 52.5632C314.825 43.8836 305.87 38.7666 297.19 41.1341C288.511 43.5016 283.394 52.4571 285.761 61.1367C287.724 68.3337 294.217 73.0813 301.326 73.1434L306.919 76.7983L309.881 70.8095Z"/>
</mask>
<path d="M309.881 70.8095L308.335 68.2385L307.582 68.6915L307.192 69.4793L309.881 70.8095ZM301.326 73.1434L302.967 70.6321L302.232 70.1512L301.353 70.1435L301.326 73.1434ZM306.919 76.7983L305.278 79.3096L308.108 81.1596L309.608 78.1284L306.919 76.7983ZM314.299 53.3527C315.899 59.2197 313.307 65.2489 308.335 68.2385L311.427 73.3805C318.64 69.0432 322.413 60.2999 320.087 51.7737L314.299 53.3527ZM297.98 44.0284C305.061 42.0969 312.367 46.2715 314.299 53.3527L320.087 51.7737C317.284 41.4957 306.679 35.4364 296.401 38.2399L297.98 44.0284ZM288.656 60.3472C286.724 53.2661 290.899 45.9599 297.98 44.0284L296.401 38.2399C286.123 41.0434 280.064 51.6481 282.867 61.9261L288.656 60.3472ZM301.353 70.1435C295.551 70.0928 290.256 66.2147 288.656 60.3472L282.867 61.9261C285.193 70.4528 292.883 76.0697 301.3 76.1433L301.353 70.1435ZM308.56 74.287L302.967 70.6321L299.685 75.6546L305.278 79.3096L308.56 74.287ZM307.192 69.4793L304.23 75.4681L309.608 78.1284L312.57 72.1396L307.192 69.4793Z" fill="#3C3CED" mask="url(#path-10-inside-1)"/>
</g>
<path d="M314.328 47.4731C313.708 47.0678 313.002 46.7608 312.209 46.5522C309.434 45.8221 306.484 46.6804 304.386 48.6713C303.611 45.8639 301.563 43.7508 298.788 43.0207C294.598 41.918 290.348 44.4931 288.658 49.0739C288.584 49.357 288.187 50.4031 288.107 52.3195C288.044 55.0882 288.849 57.7825 290.396 60.1876L298.202 72.1715L311.065 65.6265C312.68 64.78 314.057 63.6892 315.252 62.3689" stroke="#0732CA" stroke-miterlimit="10"/>
<path d="M316.584 61.4479C320.337 62.4355 324.18 60.1937 325.168 56.4408C326.155 52.6879 323.913 48.845 320.16 47.8575C316.408 46.8699 312.565 49.1117 311.577 52.8646C310.59 56.6175 312.831 60.4604 316.584 61.4479Z" stroke="#0732CA" stroke-miterlimit="10"/>
<path d="M319.34 50.972L317.403 58.3335" stroke="#0732CA" stroke-miterlimit="10"/>
<path d="M322.053 55.6213L314.691 53.6842" stroke="#0732CA" stroke-miterlimit="10"/>
<path d="M357.57 68.3486L360.694 56.4785C361.103 54.9254 362.7 54.0408 364.197 54.4349L378.563 58.2153C380.116 58.624 381.001 60.2208 380.607 61.7185L378.695 68.9847" stroke="#0732CA" stroke-miterlimit="10"/>
<path d="M373.963 87.1928L372.503 92.7396C372.095 94.2927 370.498 95.1772 369 94.7831L354.634 91.0028C353.081 90.5941 352.196 88.9972 352.59 87.4996L354.342 80.8435" stroke="#0732CA" stroke-miterlimit="10"/>
<path d="M394.981 76.0581L391.61 88.8711C391.376 89.7586 390.465 90.2899 389.578 90.0564L373.27 85.7652L369.294 87.8029L373.848 70.497C374.082 69.6095 374.993 69.0782 375.88 69.3117L393.796 74.0262C394.739 74.2744 395.215 75.1706 394.981 76.0581Z" stroke="#0732CA" stroke-miterlimit="10"/>
<path d="M378.587 79.9877C379.291 80.1731 380.013 79.7523 380.198 79.0477C380.384 78.3431 379.963 77.6216 379.258 77.4362C378.554 77.2508 377.832 77.6717 377.647 78.3763C377.461 79.0809 377.882 79.8023 378.587 79.9877Z" fill="#0732CA"/>
<path d="M382.415 80.9949C383.119 81.1803 383.841 80.7594 384.026 80.0548C384.212 79.3502 383.791 78.6288 383.086 78.4433C382.382 78.2579 381.66 78.6788 381.475 79.3834C381.289 80.088 381.71 80.8095 382.415 80.9949Z" fill="#0732CA"/>
<path d="M386.241 82.002C386.946 82.1874 387.667 81.7665 387.853 81.062C388.038 80.3574 387.617 79.6359 386.912 79.4505C386.208 79.2651 385.486 79.686 385.301 80.3905C385.116 81.0951 385.536 81.8166 386.241 82.002Z" fill="#0732CA"/>
<path d="M351.658 69.4025L349.659 77.0016C349.469 77.7227 349.878 78.4233 350.599 78.6131L363.689 82.0577L365.628 85.0588L368.576 73.8543C368.766 73.1332 368.357 72.4326 367.636 72.2428L353.27 68.4625C352.549 68.2727 351.848 68.6814 351.658 69.4025Z" stroke="#0732CA" stroke-miterlimit="10"/>
<path d="M353.293 71.0782L366.051 74.4353" stroke="#0732CA" stroke-miterlimit="10" stroke-linecap="round"/>
<path d="M352.666 73.4633L365.424 76.8204" stroke="#0732CA" stroke-miterlimit="10" stroke-linecap="round"/>
<path d="M352.053 75.793L360.373 77.9824" stroke="#0732CA" stroke-miterlimit="10" stroke-linecap="round"/>
<path d="M337.352 122.415L339.547 122.992C341.178 123.422 342.182 124.96 342.02 126.594L340.257 141.96L363.467 148.067L370.532 136.512L341.677 128.919" stroke="#0732CA" stroke-miterlimit="10"/>
<path d="M340.258 141.96L339.63 141.795C338.25 141.432 336.824 142.264 336.461 143.644C336.098 145.024 336.93 146.45 338.31 146.813L359.01 152.26" stroke="#0732CA" stroke-miterlimit="10" stroke-linecap="round"/>
<path d="M340.406 155.414C341.965 155.824 343.561 154.893 343.971 153.334C344.381 151.775 343.45 150.178 341.891 149.768C340.332 149.358 338.736 150.289 338.326 151.848C337.915 153.407 338.847 155.003 340.406 155.414Z" stroke="#0732CA" stroke-miterlimit="10" stroke-linecap="round"/>
<path d="M352.324 158.55C353.883 158.96 355.479 158.029 355.889 156.47C356.299 154.911 355.368 153.314 353.809 152.904C352.25 152.494 350.654 153.425 350.244 154.984C349.833 156.543 350.765 158.14 352.324 158.55Z" stroke="#0732CA" stroke-miterlimit="10" stroke-linecap="round"/>
<path d="M270.45 179.212C271.009 177.089 269.749 174.929 267.626 174.371C266.27 174.014 264.845 174.395 263.902 175.345C262.589 175.063 261.313 175.358 260.357 176.115C259.975 175.888 259.578 175.721 259.165 175.612C256.571 174.929 253.889 176.494 253.207 179.088C252.989 179.914 253.023 180.742 253.191 181.543C252.117 182.269 251.32 183.384 250.963 184.74C250.652 185.919 250.77 187.148 251.171 188.263C250.305 188.917 249.628 189.811 249.333 190.932C248.666 193.467 250.128 196.059 252.574 196.828C252.406 197.226 252.238 197.623 252.114 198.095C251.183 201.633 253.269 205.208 256.807 206.139C259.697 206.9 262.626 205.59 264.135 203.212C264.225 203.11 264.24 203.051 264.271 202.933L270.323 179.935C270.248 179.979 270.373 179.507 270.45 179.212Z" stroke="#0732CA" stroke-miterlimit="10"/>
<path d="M262.918 179.563C262.676 178.806 262.568 178.02 262.785 177.195C262.987 176.428 263.409 175.783 263.918 175.286" stroke="#0732CA" stroke-miterlimit="10"/>
<path d="M256.652 185.165C254.057 184.482 252.493 181.801 253.176 179.206" stroke="#0732CA" stroke-miterlimit="10"/>
<path d="M256.732 206.183C253.194 205.252 251.108 201.676 252.039 198.138C252.97 194.6 256.545 192.514 260.083 193.445" stroke="#0732CA" stroke-miterlimit="10"/>
<path d="M261.673 202.502C260.726 203.703 259.106 204.348 257.514 203.929C255.686 203.448 254.435 201.732 254.547 199.87" stroke="#0732CA" stroke-miterlimit="10"/>
<path d="M261.233 186.686C260.832 186.769 260.444 187.046 260.32 187.517C260.165 188.107 260.497 188.762 261.146 188.933L263.328 189.507" stroke="#0732CA" stroke-miterlimit="10"/>
<path d="M256.831 177.772C256.059 178.073 255.37 178.775 255.137 179.659C254.733 181.192 255.661 182.698 257.136 183.086" stroke="#0732CA" stroke-miterlimit="10"/>
<path d="M264.149 181.59C264.522 181.372 264.981 181.304 265.453 181.428C266.337 181.661 266.918 182.57 266.669 183.514C266.437 184.398 265.527 184.979 264.584 184.73" stroke="#0732CA" stroke-miterlimit="10"/>
<path d="M271.485 190.14L281.363 192.613" stroke="#0732CA" stroke-miterlimit="10" stroke-linecap="round"/>
<path d="M270.258 194.798L280.106 197.39" stroke="#0732CA" stroke-miterlimit="10" stroke-linecap="round"/>
<path d="M269.018 199.516L271.553 200.183L276.119 204.159" stroke="#0732CA" stroke-miterlimit="10" stroke-linecap="round"/>
<path d="M276.119 204.159C276.358 203.97 276.699 203.87 276.994 203.948C277.525 204.087 277.77 204.593 277.646 205.065C277.522 205.537 277 205.841 276.528 205.717C275.998 205.577 275.752 205.071 275.877 204.6C275.923 204.423 276.013 204.32 276.119 204.159Z" stroke="#0732CA" stroke-miterlimit="10" stroke-linecap="round"/>
<path d="M272.663 185.658L275.199 186.325L281.204 185.068" stroke="#0732CA" stroke-miterlimit="10" stroke-linecap="round"/>
<path d="M281.102 184.978C281.127 185.363 281.434 185.633 281.788 185.726C282.319 185.866 282.781 185.546 282.905 185.075C283.045 184.544 282.725 184.081 282.254 183.957C281.723 183.818 281.261 184.137 281.136 184.609C281.105 184.727 281.074 184.845 281.102 184.978Z" stroke="#0732CA" stroke-miterlimit="10"/>
<path d="M282.058 193.805C282.546 193.934 283.046 193.642 283.175 193.153C283.304 192.665 283.012 192.165 282.523 192.036C282.035 191.907 281.534 192.199 281.406 192.688C281.277 193.176 281.569 193.677 282.058 193.805Z" stroke="#0732CA" stroke-miterlimit="10"/>
<path d="M280.815 198.523C281.304 198.651 281.804 198.359 281.933 197.871C282.061 197.382 281.77 196.882 281.281 196.754C280.793 196.625 280.292 196.917 280.164 197.405C280.035 197.894 280.327 198.394 280.815 198.523Z" stroke="#0732CA" stroke-miterlimit="10"/>
<path d="M277.266 140.074L283.108 141.612" stroke="#0732CA" stroke-miterlimit="10" stroke-linecap="round"/>
<path d="M282.302 132.635C279.424 131.878 277.689 128.904 278.447 126.027L281.315 115.128C282.072 112.25 285.046 110.515 287.923 111.273C290.8 112.03 292.535 115.003 291.778 117.881L288.91 128.78C288.153 131.658 285.179 133.392 282.302 132.635Z" stroke="#0732CA" stroke-miterlimit="10"/>
<path d="M291.347 129.794C290.222 134.067 285.817 136.637 281.544 135.513C277.272 134.388 274.702 129.983 275.826 125.71" stroke="#0732CA" stroke-miterlimit="10" stroke-linecap="round"/>
<path d="M281.566 135.425L280.144 140.831" stroke="#0732CA" stroke-miterlimit="10"/>
<path d="M283.09 118.299L288.583 119.744" stroke="#0732CA" stroke-miterlimit="10" stroke-linecap="round"/>
<path d="M282.332 121.176L287.825 122.622" stroke="#0732CA" stroke-miterlimit="10" stroke-linecap="round"/>
<path d="M281.553 124.141L287.046 125.586" stroke="#0732CA" stroke-miterlimit="10" stroke-linecap="round"/>
<path d="M333.948 204.33C336.917 205.111 339.958 203.338 340.74 200.368C341.521 197.398 339.747 194.357 336.777 193.576C333.808 192.794 330.767 194.568 329.985 197.538C329.204 200.508 330.978 203.549 333.948 204.33Z" stroke="#0732CA" stroke-miterlimit="10"/>
<path d="M329.098 222.766C332.068 223.547 335.109 221.773 335.89 218.804C336.671 215.834 334.898 212.793 331.928 212.012C328.958 211.23 325.917 213.004 325.136 215.974C324.354 218.943 326.128 221.984 329.098 222.766Z" stroke="#0732CA" stroke-miterlimit="10"/>
<path d="M342.924 226.404C345.894 227.186 348.935 225.412 349.716 222.442C350.498 219.472 348.724 216.431 345.754 215.65C342.784 214.869 339.743 216.642 338.962 219.612C338.181 222.582 339.954 225.623 342.924 226.404Z" stroke="#0732CA" stroke-miterlimit="10"/>
<path d="M315.27 219.127C318.24 219.909 321.28 218.135 322.062 215.165C322.843 212.195 321.069 209.155 318.1 208.373C315.13 207.592 312.089 209.366 311.308 212.335C310.526 215.305 312.3 218.346 315.27 219.127Z" stroke="#0732CA" stroke-miterlimit="10"/>
<path d="M333.342 206.634L332.533 209.707" stroke="#0732CA" stroke-miterlimit="10" stroke-linecap="round"/>
<path d="M342.842 201.742L345.914 202.551C347.604 202.996 348.623 204.742 348.178 206.432L346.359 213.345" stroke="#0732CA" stroke-miterlimit="10" stroke-linecap="round"/>
<path d="M327.096 197.599L324.024 196.79C322.334 196.345 320.587 197.364 320.143 199.054L318.323 205.968" stroke="#0732CA" stroke-miterlimit="10" stroke-linecap="round"/>
<path d="M227.658 260.848L227.979 248.86C228.049 246.722 229.774 245.082 231.911 245.152L262.372 245.961C264.51 246.03 266.15 247.756 266.08 249.893L265.959 253.865" stroke="#0732CA" stroke-miterlimit="10" stroke-linecap="round"/>
<path d="M259.461 279.256L230.025 271.51C227.951 270.965 226.778 268.87 227.308 266.854L231.719 250.09C232.265 248.017 234.36 246.843 236.376 247.374L265.812 255.12C267.886 255.666 269.06 257.761 268.529 259.777L264.118 276.54C263.572 278.614 261.477 279.787 259.461 279.256Z" stroke="#0732CA" stroke-miterlimit="10" stroke-linecap="round"/>
<path d="M259.009 262.014C258.282 262.439 257.384 262.572 256.52 262.345C254.735 261.875 253.673 260.056 254.143 258.27C254.613 256.484 256.432 255.423 258.218 255.893C259.082 256.12 259.798 256.678 260.222 257.406" stroke="#0732CA" stroke-miterlimit="10" stroke-linecap="round"/>
<path d="M261.014 263.527C262.796 263.996 264.62 262.932 265.089 261.15C265.558 259.369 264.494 257.544 262.712 257.075C260.931 256.607 259.106 257.671 258.637 259.452C258.169 261.234 259.233 263.058 261.014 263.527Z" stroke="#0732CA" stroke-miterlimit="10" stroke-linecap="round"/>
<path d="M231.283 263.218L238.253 265.053" stroke="#0732CA" stroke-miterlimit="10" stroke-linecap="round"/>
<path d="M239.348 265.341L246.318 267.175" stroke="#0732CA" stroke-miterlimit="10" stroke-linecap="round"/>
<path d="M247.355 267.448L254.326 269.282" stroke="#0732CA" stroke-miterlimit="10" stroke-linecap="round"/>
<path d="M255.42 269.57L262.39 271.404" stroke="#0732CA" stroke-miterlimit="10" stroke-linecap="round"/>
<path d="M251.725 271.677L256.333 272.89" stroke="#0732CA" stroke-miterlimit="10" stroke-linecap="round"/>
<path d="M257.023 273.072L261.632 274.284" stroke="#0732CA" stroke-miterlimit="10" stroke-linecap="round"/>
<g clip-path="url(#clip0)">
<path d="M307.787 273.687L297.465 284.62C296.457 285.699 296.895 287.572 298.442 287.979L323.78 294.647C325.327 295.054 326.752 293.568 326.238 291.985L324.126 286.259C323.774 285.235 322.665 284.737 321.667 284.991L318.964 285.831C318.064 286.111 317.025 285.734 316.552 284.783L311.106 274.043C310.367 272.918 308.769 272.704 307.787 273.687Z" stroke="#0732CA" stroke-miterlimit="10"/>
<path d="M322.619 274.694C325.557 275.467 328.565 273.713 329.338 270.775C330.111 267.838 328.356 264.83 325.419 264.057C322.481 263.284 319.473 265.038 318.7 267.976C317.927 270.913 319.682 273.921 322.619 274.694Z" stroke="#0732CA" stroke-miterlimit="10"/>
</g>
<path d="M364.272 48.5314V272.754C364.272 281.985 356.869 289.446 347.73 289.446H260.794C251.654 289.446 244.252 281.985 244.252 272.754V48.5314C244.252 39.2979 251.657 31.7668 260.794 31.7668H272.374V35.6917C272.374 39.083 275.111 41.8499 278.483 41.8499H329.178C332.55 41.8499 335.286 39.083 335.286 35.6917V31.7668H347.73C356.867 31.7668 364.272 39.2979 364.272 48.5314Z" stroke="white"/>
<path d="M348.737 295.539H259.788C248.419 295.539 239.219 286.264 239.219 274.785V47.9511C239.219 36.4715 248.419 27.1967 259.788 27.1967H348.737C360.105 27.1967 369.306 36.4715 369.306 47.9511V274.785C369.306 286.264 360.105 295.539 348.737 295.539Z" stroke="url(#paint1_linear)"/>
<rect x="542.508" y="57.8997" width="53" height="52" fill="#252437" stroke="url(#paint2_linear)"/>
<g clip-path="url(#clip1)">
<rect width="34" height="35" transform="matrix(1 0 0 -1 552.008 101.4)" fill="#252437"/>
<path d="M580.881 87.9788L580.964 87.774L581.172 87.6978L581.334 87.6386C583.595 86.8076 584.68 86.3592 585.202 86.0687C585.328 85.9984 585.408 85.9444 585.459 85.9042C585.483 85.8847 585.498 85.8704 585.507 85.8613C585.507 85.8484 585.508 85.8272 585.508 85.7941C585.508 85.7941 585.508 85.7941 585.508 85.794V82.1601C585.508 82.1268 585.507 82.1057 585.507 82.0931C585.498 82.0833 585.482 82.0673 585.454 82.045C585.403 82.0028 585.321 81.9464 585.194 81.8726C584.67 81.5682 583.583 81.0891 581.323 80.1868L581.321 80.1861L581.17 80.1253L580.975 80.0463L580.895 79.8509L580.263 78.3072L580.181 78.1069L580.271 77.91L580.346 77.7459L580.347 77.7442C581.36 75.5496 581.813 74.4603 581.978 73.883C582.018 73.7432 582.037 73.6475 582.045 73.5825C582.049 73.5493 582.05 73.5275 582.049 73.5145C582.041 73.5054 582.027 73.4905 582.006 73.4682C582.005 73.4676 582.005 73.467 582.004 73.4664L579.449 70.894C579.448 70.8934 579.447 70.8923 579.444 70.8909C579.438 70.8867 579.428 70.8814 579.415 70.8763C579.402 70.8713 579.389 70.8674 579.377 70.865C579.371 70.8639 579.366 70.8632 579.363 70.8628C579.359 70.8624 579.356 70.8623 579.355 70.8623C579.355 70.8623 579.355 70.8623 579.355 70.8623C579.354 70.8625 579.327 70.864 579.262 70.8777C579.197 70.8914 579.112 70.9137 579.003 70.9462C578.785 71.0114 578.495 71.1116 578.131 71.2491C577.403 71.5237 576.402 71.9377 575.13 72.4916L575.13 72.4916L575.124 72.4942L574.977 72.5561L574.784 72.637L574.591 72.5567L573.041 71.9118L572.841 71.8282L572.765 71.6245L572.703 71.4596L572.703 71.4596L572.702 71.456C571.876 69.1813 571.431 68.0878 571.143 67.5616C571.074 67.4341 571.02 67.353 570.98 67.3019C570.963 67.28 570.95 67.2656 570.941 67.2565C570.929 67.2561 570.912 67.2557 570.886 67.2557H567.281C567.258 67.2557 567.242 67.2561 567.23 67.2564C567.221 67.2659 567.206 67.2816 567.187 67.306C567.145 67.3583 567.089 67.4405 567.016 67.5683C566.715 68.095 566.24 69.1867 565.35 71.4526L565.29 71.6097L565.214 71.8117L565.015 71.8947L563.459 72.5427L563.251 72.6289L563.049 72.5315L562.901 72.4602C561.021 71.5844 559.985 71.1526 559.407 70.9405C559.118 70.8342 558.955 70.7872 558.864 70.7663C558.793 70.7502 558.774 70.7512 558.768 70.7515C558.767 70.7515 558.767 70.7515 558.766 70.7515C558.767 70.7515 558.765 70.7515 558.762 70.7519C558.758 70.7523 558.754 70.7529 558.748 70.7541C558.737 70.7565 558.724 70.7605 558.71 70.766C558.697 70.7715 558.685 70.7776 558.677 70.7829C558.672 70.786 558.669 70.7882 558.668 70.789L556.126 73.3489C556.126 73.3494 556.125 73.3499 556.125 73.3503C556.101 73.3745 556.087 73.39 556.079 73.3992C556.078 73.4126 556.078 73.4363 556.082 73.4738C556.089 73.541 556.107 73.639 556.145 73.7818C556.302 74.3703 556.733 75.482 557.694 77.7268L557.762 77.884L557.845 78.0768L557.765 78.271L557.133 79.8169L557.049 80.0217L556.841 80.0974L556.682 80.155C556.682 80.1552 556.681 80.1553 556.681 80.1555C554.421 80.9892 553.336 81.4393 552.814 81.7307C552.688 81.8012 552.608 81.8554 552.558 81.8958C552.533 81.9156 552.518 81.9302 552.509 81.9394C552.508 81.9522 552.508 81.9736 552.508 82.0071V85.6433C552.508 85.6761 552.508 85.6971 552.509 85.7097C552.518 85.7194 552.534 85.7351 552.561 85.7569C552.612 85.7988 552.693 85.8549 552.82 85.9284C553.343 86.2314 554.429 86.7079 556.685 87.6055L556.685 87.6056L556.84 87.6672L557.038 87.7458L557.118 87.9428L557.751 89.4933L557.832 89.6932L557.743 89.8897L557.669 90.0519L557.668 90.0535C556.657 92.2502 556.205 93.3411 556.04 93.9191C556 94.0591 555.981 94.1549 555.974 94.22C555.97 94.2528 555.969 94.2746 555.97 94.2875C555.978 94.2967 555.992 94.3116 556.014 94.3339C556.014 94.3342 556.014 94.3344 556.015 94.3347L558.567 96.9028C558.568 96.9035 558.57 96.9047 558.572 96.9063C558.579 96.9107 558.589 96.9161 558.602 96.9213C558.615 96.9264 558.628 96.9302 558.639 96.9326C558.651 96.935 558.658 96.9352 558.66 96.9352C558.659 96.9352 558.659 96.9352 558.66 96.9352C558.665 96.9348 558.692 96.9326 558.753 96.9198C558.818 96.906 558.904 96.8837 559.014 96.8511C559.232 96.7859 559.522 96.6856 559.887 96.5482C560.616 96.2736 561.617 95.8601 562.89 95.3076L562.893 95.3067L563.041 95.2433L563.235 95.1599L563.431 95.2419L564.978 95.8912L565.177 95.9747L565.253 96.1765L565.314 96.3413L565.315 96.3413L565.316 96.3464C566.142 98.6188 566.59 99.7117 566.878 100.237C566.948 100.365 567.002 100.446 567.042 100.497C567.059 100.519 567.072 100.534 567.081 100.543C567.092 100.543 567.108 100.544 567.13 100.544H570.735C570.757 100.544 570.773 100.543 570.784 100.543C570.794 100.533 570.809 100.518 570.828 100.494C570.87 100.441 570.926 100.359 570.999 100.231C571.299 99.7039 571.775 98.611 572.665 96.3423L572.727 96.1832L572.804 95.9851L573.001 95.9036L574.556 95.2589L574.759 95.175L574.958 95.2669L575.109 95.3368L575.11 95.3375C576.991 96.2146 578.027 96.6469 578.605 96.8592C578.895 96.9655 579.058 97.0126 579.149 97.0334C579.22 97.0496 579.239 97.0486 579.246 97.0483C579.246 97.0483 579.247 97.0483 579.247 97.0483C579.247 97.0483 579.248 97.0483 579.249 97.0482L579.252 97.0479C579.256 97.0475 579.26 97.0469 579.265 97.0457C579.276 97.0434 579.289 97.0397 579.301 97.0345C579.314 97.0293 579.324 97.0237 579.331 97.0192C579.335 97.0171 579.337 97.0157 579.337 97.015L579.339 97.0139L581.888 94.4535C581.889 94.453 581.889 94.4526 581.89 94.4521C581.911 94.4305 581.924 94.4162 581.932 94.4075C581.932 94.3938 581.932 94.3696 581.929 94.3316C581.922 94.264 581.904 94.1654 581.866 94.0224C581.711 93.4329 581.282 92.3187 580.321 90.0757L580.253 89.9167L580.171 89.7246L580.249 89.5309L580.881 87.9788ZM579.336 97.0169L579.336 97.0163C579.336 97.0165 579.336 97.0167 579.336 97.0169L579.336 97.0169ZM562.666 83.899C562.666 80.377 565.506 77.5024 569.008 77.5024C572.509 77.5024 575.348 80.3777 575.348 83.899C575.348 87.4208 572.508 90.2921 569.008 90.2921C565.506 90.2921 562.666 87.4215 562.666 83.899Z" stroke="white"/>
</g>
<rect x="410.289" y="239.341" width="52" height="52" fill="#252437" stroke="url(#paint3_linear)"/>
<path d="M442.273 258.781L449.617 266.852L441.799 273.966" stroke="white"/>
<path d="M433.582 273.968L425.867 266.253L433.341 258.779" stroke="white"/>
<rect x="15.3555" y="327.1" width="52.0785" height="52.0785" fill="#252437" stroke="url(#paint4_linear)"/>
<path d="M42.2732 353.444V358.936H40.498V353.444" fill="#252437"/>
<path d="M42.2732 353.444V358.936H40.498V353.444" stroke="white" stroke-miterlimit="10"/>
<path d="M42.2182 370.419H40.554C40.1102 370.419 39.7773 370.087 39.7773 369.643V359.713C39.7773 359.269 40.1102 358.936 40.554 358.936H42.2182C42.662 358.936 42.9948 359.269 42.9948 359.713V369.643C42.9948 370.087 42.662 370.419 42.2182 370.419Z" fill="#252437" stroke="white" stroke-miterlimit="10"/>
<path d="M41.3856 353.61C46.2876 353.61 50.2615 349.637 50.2615 344.735C50.2615 339.833 46.2876 335.859 41.3856 335.859C36.4836 335.859 32.5098 339.833 32.5098 344.735C32.5098 349.637 36.4836 353.61 41.3856 353.61Z" fill="#252437"/>
<path d="M50.2615 344.735H49.7615H50.2615ZM41.3856 353.61V354.11V353.61ZM49.7615 344.735C49.7615 349.36 46.0115 353.11 41.3856 353.11V354.11C46.5638 354.11 50.7615 349.913 50.7615 344.735H49.7615ZM41.3856 353.11C36.7598 353.11 33.0098 349.361 33.0098 344.735H32.0098C32.0098 349.913 36.2075 354.11 41.3856 354.11V353.11ZM33.0098 344.735C33.0098 340.109 36.7598 336.359 41.3856 336.359V335.359C36.2075 335.359 32.0098 339.557 32.0098 344.735H33.0098ZM41.3856 336.359C46.0115 336.359 49.7615 340.109 49.7615 344.735H50.7615C50.7615 339.557 46.5638 335.359 41.3856 335.359V336.359Z" fill="white"/>
<rect width="33.6339" height="40.102" transform="matrix(1 0 0 -1 141.105 210.49)" fill="#252437"/>
<path d="M163.458 177.961H155.348V176.099C155.348 175.611 155.487 175.184 155.686 174.893C155.888 174.598 156.112 174.489 156.292 174.489H162.514C162.694 174.489 162.918 174.598 163.12 174.893C163.319 175.184 163.458 175.611 163.458 176.099V177.961Z" stroke="white"/>
<rect x="132.461" y="166.881" width="52.0785" height="52.0785" fill="#252437" stroke="url(#paint5_linear)"/>
<path d="M163.576 177.234V206.527L159.576 210.985L155.576 206.527V177.234H163.576Z" fill="#252437" stroke="white"/>
<defs>
<filter id="filter0_d" x="192.627" y="0.87796" width="232.215" height="331.764" filterUnits="userSpaceOnUse" color-interpolation-filters="sRGB">
<feFlood flood-opacity="0" result="BackgroundImageFix"/>
<feColorMatrix in="SourceAlpha" type="matrix" values="0 0 0 0 0 0 0 0 0 0 0 0 0 0 0 0 0 0 127 0"/>
<feOffset/>
<feGaussianBlur stdDeviation="10"/>
<feColorMatrix type="matrix" values="0 0 0 0 0.341836 0 0 0 0 0.0850521 0 0 0 0 0.8875 0 0 0 0.25 0"/>
<feBlend mode="normal" in2="BackgroundImageFix" result="effect1_dropShadow"/>
<feBlend mode="normal" in="SourceGraphic" in2="effect1_dropShadow" result="shape"/>
</filter>
<linearGradient id="paint0_linear" x1="277.746" y1="-39.5683" x2="447.031" y2="252.72" gradientUnits="userSpaceOnUse">
<stop offset="0.189545" stop-color="#4B13E8"/>
<stop offset="0.973018" stop-color="#9F2DF8"/>
</linearGradient>
<linearGradient id="paint1_linear" x1="297.97" y1="-145.121" x2="429.762" y2="-104.714" gradientUnits="userSpaceOnUse">
<stop offset="0.189545" stop-color="#4B13E8"/>
<stop offset="0.973018" stop-color="#9F2DF8"/>
</linearGradient>
<linearGradient id="paint2_linear" x1="566.416" y1="23.5902" x2="608.481" y2="50.589" gradientUnits="userSpaceOnUse">
<stop offset="0.189545" stop-color="#4B13E8"/>
<stop offset="0.973018" stop-color="#9F2DF8"/>
</linearGradient>
<linearGradient id="paint3_linear" x1="433.745" y1="205.031" x2="475.478" y2="231.321" gradientUnits="userSpaceOnUse">
<stop offset="0.189545" stop-color="#4B13E8"/>
<stop offset="0.973018" stop-color="#9F2DF8"/>
</linearGradient>
<linearGradient id="paint4_linear" x1="38.8469" y1="292.74" x2="80.6418" y2="319.069" gradientUnits="userSpaceOnUse">
<stop offset="0.189545" stop-color="#4B13E8"/>
<stop offset="0.973018" stop-color="#9F2DF8"/>
</linearGradient>
<linearGradient id="paint5_linear" x1="155.952" y1="132.522" x2="197.747" y2="158.85" gradientUnits="userSpaceOnUse">
<stop offset="0.189545" stop-color="#4B13E8"/>
<stop offset="0.973018" stop-color="#9F2DF8"/>
</linearGradient>
<clipPath id="clip0">
<rect x="303.689" y="257.822" width="31.3" height="31" transform="rotate(14.7428 303.689 257.822)" fill="white"/>
</clipPath>
<clipPath id="clip1">
<rect width="34" height="35" transform="matrix(1 0 0 -1 552.008 101.4)" fill="white"/>
</clipPath>
</defs>
</svg>
