<svg width="21" height="17" viewBox="0 0 21 17" fill="none" xmlns="http://www.w3.org/2000/svg">
<path d="M20.6745 8.39531C20.6745 9.46735 20.4669 10.4441 20.0257 11.3732C19.5585 12.3261 18.9616 13.1361 18.209 13.8508C17.4564 14.5417 16.548 15.1134 15.5099 15.5184C14.4978 15.9234 13.4078 16.1378 12.2399 16.1378H6.66016L9.46302 13.5411H12.2659C13.0445 13.5411 13.7711 13.3982 14.4459 13.1599C15.1207 12.8979 15.7176 12.5167 16.2366 12.0402C16.7297 11.5638 17.145 11.0158 17.4304 10.3964C17.7159 9.75323 17.8716 9.11 17.8716 8.39531C17.8716 7.70444 17.7159 7.0374 17.4304 6.39417C17.145 5.77477 16.7297 5.22684 16.2107 4.75038C15.7176 4.29774 15.0947 3.89275 14.4199 3.6307C13.7452 3.36864 13.0185 3.24953 12.2399 3.24953H9.46302L6.66016 0.676636H12.2659C13.4337 0.676636 14.4978 0.891043 15.5359 1.29604C16.548 1.70103 17.4564 2.27278 18.209 2.96365C18.9876 3.67834 19.5845 4.48833 20.0516 5.44125C20.4669 6.34653 20.6745 7.3471 20.6745 8.39531Z" fill="url(#paint0_linear)"/>
<path d="M13.5901 11.3732C13.123 12.3261 12.5261 13.1361 11.7475 13.8508C10.9949 14.5417 10.0865 15.1134 9.0744 15.5184C8.0363 15.9234 6.97225 16.1378 5.80439 16.1378H0.224609L3.02747 13.5411H5.83034C6.58296 13.5411 7.33558 13.3982 8.01035 13.1599C8.68511 12.8979 9.28202 12.4929 9.80107 12.0402C10.3201 11.5638 10.7354 11.0158 11.0208 10.3964C11.3063 9.75323 11.462 9.11 11.462 8.39531C11.462 7.70444 11.3063 7.0374 11.0208 6.39417C10.7354 5.77477 10.3201 5.22684 9.82702 4.75038C9.33392 4.27392 8.71106 3.89275 8.0363 3.6307C7.36153 3.36864 6.63487 3.24953 5.85629 3.24953H3.02747L0.224609 0.676636H5.83034C6.9982 0.676636 8.0882 0.891043 9.10035 1.29604C10.1384 1.70103 11.0468 2.27278 11.7994 2.96365C12.552 3.67834 13.1489 4.48833 13.6161 5.44125C14.0573 6.37035 14.2649 7.3471 14.2649 8.41913C14.2389 9.46735 14.0313 10.4441 13.5901 11.3732Z" fill="url(#paint1_linear)"/>
<path d="M12.2659 3.27335C13.0185 3.27335 13.7711 3.41629 14.4459 3.65452C15.1207 3.91657 15.7176 4.32157 16.2366 4.7742C16.3664 4.89332 16.4702 5.01243 16.574 5.15537H19.8959C19.4547 4.32157 18.9097 3.60687 18.209 2.96365C17.4564 2.27278 16.548 1.70103 15.5359 1.29604C14.4978 0.891043 13.4337 0.676636 12.2659 0.676636H6.66016L9.46302 3.27335H12.2659Z" fill="#ED212E"/>
<defs>
<linearGradient id="paint0_linear" x1="13.6661" y1="21.4749" x2="13.6764" y2="4.31532" gradientUnits="userSpaceOnUse">
<stop offset="0.2236" stop-color="#BE1E2D"/>
<stop offset="1" stop-color="#ED1C24"/>
</linearGradient>
<linearGradient id="paint1_linear" x1="7.22105" y1="-4.66602" x2="7.23129" y2="12.4936" gradientUnits="userSpaceOnUse">
<stop offset="0.2236" stop-color="#BE1E2D"/>
<stop offset="1" stop-color="#ED1C24"/>
</linearGradient>
</defs>
</svg>
