<svg width="31" height="29" viewBox="0 0 31 29" fill="none" xmlns="http://www.w3.org/2000/svg">
<path d="M27.6465 0.0717773H3.64648C1.99648 0.0717773 0.646484 1.34916 0.646484 2.9104V25.6194C0.646484 27.1806 1.99648 28.458 3.64648 28.458H27.6465C29.2965 28.458 30.6465 27.1806 30.6465 25.6194V2.9104C30.6465 1.34916 29.2965 0.0717773 27.6465 0.0717773ZM9.64648 24.2001H5.14648V11.4263H9.64648V24.2001ZM7.39648 9.01344C5.89648 9.01344 4.69648 7.87799 4.69648 6.45868C4.69648 5.03937 5.89648 3.90392 7.39648 3.90392C8.89648 3.90392 10.0965 5.03937 10.0965 6.45868C10.0965 7.87799 8.89648 9.01344 7.39648 9.01344ZM26.1465 24.2001H21.6465V16.6777C21.6465 15.5423 20.5965 14.5488 19.3965 14.5488C18.1965 14.5488 17.1465 15.5423 17.1465 16.6777V24.2001H12.6465V11.4263H17.1465V13.1294C17.8965 11.994 19.5465 11.1424 20.8965 11.1424C23.7465 11.1424 26.1465 13.4133 26.1465 16.11V24.2001Z" fill="white"/>
</svg>
