<svg width="85" height="85" viewBox="0 0 85 85" fill="none" xmlns="http://www.w3.org/2000/svg">
<path d="M44.0777 10.8158C44.0777 5.39919 39.7144 1.03583 34.2978 1.03583C30.8372 1.03583 27.6775 2.84136 26.0224 5.70012C22.7123 5.85058 19.8535 7.35519 18.048 9.76256C16.9948 9.46164 15.9415 9.31118 14.8883 9.31118C8.26802 9.31118 2.85143 14.7278 2.85143 21.3481C2.85143 23.4545 3.45327 25.4105 4.35604 27.216C2.24959 29.6234 1.0459 32.7831 1.0459 36.2437C1.0459 39.2529 2.09912 42.1117 3.7542 44.519C2.09912 46.6255 1.0459 49.1833 1.0459 52.0421C1.0459 58.5119 6.16157 63.778 12.4809 64.079C12.3305 65.1322 12.18 66.1854 12.18 67.3891C12.18 76.4167 19.4021 83.6389 28.4298 83.6389C35.8024 83.6389 41.9713 78.6737 44.0777 72.0534C44.2282 71.7525 44.2282 12.4709 44.2282 12.4709C44.2282 12.4709 44.0777 11.4176 44.0777 10.8158Z" stroke="#0864EF" stroke-width="2" stroke-miterlimit="10"/>
<path d="M26.3231 16.3829C25.2699 14.7278 24.5176 12.9223 24.5176 10.8158C24.5176 8.85982 25.1194 7.05429 26.0222 5.54968" stroke="#0864EF" stroke-width="2" stroke-miterlimit="10"/>
<path d="M14.8884 33.5354C8.26816 33.5354 2.85156 28.1188 2.85156 21.4985" stroke="#0864EF" stroke-width="2" stroke-miterlimit="10"/>
<path d="M28.2791 83.7894C19.2514 83.7894 12.0293 76.5673 12.0293 67.5396C12.0293 58.5119 19.2514 51.2898 28.2791 51.2898" stroke="#0864EF" stroke-width="2" stroke-miterlimit="10"/>
<path d="M37.7587 71.7525C36.2541 75.2131 32.7935 77.7709 28.7311 77.7709C24.0668 77.7709 20.0043 74.4608 19.1016 69.9469" stroke="#0864EF" stroke-width="2" stroke-miterlimit="10"/>
<path d="M26.7742 34.2877C25.8714 34.739 25.1191 35.6418 25.1191 36.8455C25.1191 38.3501 26.3228 39.7043 27.9779 39.7043H33.545" stroke="#0864EF" stroke-width="2" stroke-miterlimit="10"/>
<path d="M10.6752 15.9315C9.02009 17.1352 7.81641 19.2417 7.81641 21.4986C7.81641 25.4106 10.9761 28.4198 14.7376 28.4198" stroke="#0864EF" stroke-width="2" stroke-miterlimit="10"/>
<path d="M30.5361 20.4453C31.2884 19.693 32.3417 19.2416 33.5454 19.2416C35.8023 19.2416 37.7583 21.0471 37.7583 23.4545C37.7583 25.8619 35.9527 27.6674 33.5454 27.6674" stroke="#0864EF" stroke-width="2" stroke-miterlimit="10"/>
<path d="M53.4072 36.2437L81.8443 35.7923" stroke="#252437" stroke-width="2" stroke-miterlimit="10"/>
<path d="M53.4072 47.9797H81.8443" stroke="#252437" stroke-width="2" stroke-miterlimit="10"/>
<path d="M53.4072 60.0165H59.877L74.7727 67.5396" stroke="#252437" stroke-width="2" stroke-miterlimit="10"/>
<path d="M75.2237 70.2478C76.4702 70.2478 77.4806 69.2374 77.4806 67.9909C77.4806 66.7445 76.4702 65.734 75.2237 65.734C73.9773 65.734 72.9668 66.7445 72.9668 67.9909C72.9668 69.2374 73.9773 70.2478 75.2237 70.2478Z" fill="white" stroke="#252437" stroke-width="2" stroke-miterlimit="10"/>
<path d="M53.4072 24.8087H59.877L74.7727 17.2856" stroke="#252437" stroke-width="2" stroke-miterlimit="10"/>
<path d="M75.2237 19.0912C76.4702 19.0912 77.4806 18.0807 77.4806 16.8342C77.4806 15.5878 76.4702 14.5773 75.2237 14.5773C73.9773 14.5773 72.9668 15.5878 72.9668 16.8342C72.9668 18.0807 73.9773 19.0912 75.2237 19.0912Z" fill="white" stroke="#252437" stroke-width="2" stroke-miterlimit="10"/>
<path d="M80.7911 37.7483C82.0376 37.7483 83.048 36.7379 83.048 35.4914C83.048 34.245 82.0376 33.2345 80.7911 33.2345C79.5446 33.2345 78.5342 34.245 78.5342 35.4914C78.5342 36.7379 79.5446 37.7483 80.7911 37.7483Z" fill="white" stroke="#252437" stroke-width="2" stroke-miterlimit="10"/>
<path d="M80.7911 50.688C82.0376 50.688 83.048 49.6775 83.048 48.431C83.048 47.1846 82.0376 46.1741 80.7911 46.1741C79.5446 46.1741 78.5342 47.1846 78.5342 48.431C78.5342 49.6775 79.5446 50.688 80.7911 50.688Z" fill="white" stroke="#252437" stroke-width="2" stroke-miterlimit="10"/>
</svg>
