<svg width="92" height="72" viewBox="0 0 92 72" fill="none" xmlns="http://www.w3.org/2000/svg">
<path d="M60.1658 3.7809C58.4892 3.22205 56.673 2.94263 54.717 2.94263C47.8712 2.94263 41.5841 6.71484 37.9516 12.5827C34.4589 6.57513 28.4513 2.94263 21.6054 2.94263C11.2668 2.94263 3.02378 11.465 1.90609 23.0611C1.90609 23.7596 1.62667 26.4142 2.60465 30.8849C4.14147 37.3116 7.63426 43.0398 12.6639 47.6503L37.9516 70.563L63.6586 47.6503C66.8719 44.7164 69.3867 41.3633 71.3427 37.5911" stroke="#0864EF" stroke-width="2" stroke-miterlimit="10"/>
<path d="M73.8572 34.6572C83.1164 34.6572 90.6225 27.151 90.6225 17.8918C90.6225 8.63252 83.1164 1.1264 73.8572 1.1264C64.5979 1.1264 57.0918 8.63252 57.0918 17.8918C57.0918 27.151 64.5979 34.6572 73.8572 34.6572Z" stroke="#252437" stroke-width="2" stroke-miterlimit="10"/>
<path d="M73.8584 8.81058V26.9731" stroke="#252437" stroke-width="2" stroke-miterlimit="10"/>
<path d="M82.9398 17.8918H64.7773" stroke="#252437" stroke-width="2" stroke-miterlimit="10"/>
</svg>
