<svg width="86" height="78" viewBox="0 0 86 78" fill="none" xmlns="http://www.w3.org/2000/svg">
<path d="M66.0524 38.8372C76.4259 38.8372 84.8353 30.4278 84.8353 20.0543C84.8353 9.68081 76.4259 1.27142 66.0524 1.27142C55.6789 1.27142 47.2695 9.68081 47.2695 20.0543C47.2695 30.4278 55.6789 38.8372 66.0524 38.8372Z" stroke="#252437" stroke-width="2" stroke-miterlimit="10"/>
<path d="M75.6012 25.3762C73.7229 28.5067 70.2794 30.5415 66.3663 30.5415C61.0445 30.5415 56.5053 26.6284 55.7227 21.4631" stroke="#252437" stroke-width="2" stroke-miterlimit="10"/>
<mask id="path-3-inside-1" fill="white">
<path d="M58.6961 24.4371L55.8787 22.0892L53.5308 24.9067L53.2178 22.7153L55.5656 19.8979L58.5396 22.2458L58.6961 24.4371Z"/>
</mask>
<path d="M58.6961 24.4371L57.4157 25.9735L61.0258 28.9819L60.691 24.2946L58.6961 24.4371ZM55.8787 22.0892L57.1591 20.5528L55.6226 19.2724L54.3423 20.8089L55.8787 22.0892ZM53.5308 24.9067L51.5509 25.1895L52.1872 29.6431L55.0673 26.187L53.5308 24.9067ZM53.2178 22.7153L51.6813 21.435L51.1121 22.118L51.2379 22.9982L53.2178 22.7153ZM55.5656 19.8979L56.8049 18.3281L55.2761 17.1212L54.0292 18.6175L55.5656 19.8979ZM58.5396 22.2458L60.5346 22.1033L60.4717 21.2229L59.7789 20.676L58.5396 22.2458ZM59.9765 22.9006L57.1591 20.5528L54.5983 23.6257L57.4157 25.9735L59.9765 22.9006ZM54.3423 20.8089L51.9944 23.6263L55.0673 26.187L57.4151 23.3696L54.3423 20.8089ZM55.5107 24.6238L55.1977 22.4325L51.2379 22.9982L51.5509 25.1895L55.5107 24.6238ZM54.7542 23.9957L57.1021 21.1783L54.0292 18.6175L51.6813 21.435L54.7542 23.9957ZM54.3264 21.4677L57.3004 23.8155L59.7789 20.676L56.8049 18.3281L54.3264 21.4677ZM56.5447 22.3882L56.7012 24.5795L60.691 24.2946L60.5346 22.1033L56.5447 22.3882Z" fill="#252437" mask="url(#path-3-inside-1)"/>
<path d="M56.5049 14.7326C58.3832 11.6021 61.8267 9.56732 65.7398 9.56732C71.0616 9.56732 75.6008 13.4804 76.3834 18.6457" stroke="#252437" stroke-width="2" stroke-miterlimit="10"/>
<mask id="path-6-inside-2" fill="white">
<path d="M73.4082 15.6717L76.2256 18.0195L78.5735 15.2021L78.8865 17.3934L76.5387 20.2109L73.5647 17.863L73.4082 15.6717Z"/>
</mask>
<path d="M73.4082 15.6717L74.6886 14.1352L71.0786 11.1269L71.4133 15.8141L73.4082 15.6717ZM76.2256 18.0195L74.9452 19.556L76.4817 20.8363L77.7621 19.2999L76.2256 18.0195ZM78.5735 15.2021L80.5534 14.9192L79.9171 10.4656L77.037 13.9217L78.5735 15.2021ZM78.8865 17.3934L80.423 18.6738L80.9922 17.9908L80.8664 17.1106L78.8865 17.3934ZM76.5387 20.2109L75.2994 21.7806L76.8282 22.9876L78.0751 21.4912L76.5387 20.2109ZM73.5647 17.863L71.5698 18.0055L71.6326 18.8859L72.3254 19.4328L73.5647 17.863ZM72.1278 17.2081L74.9452 19.556L77.506 16.4831L74.6886 14.1352L72.1278 17.2081ZM77.7621 19.2999L80.1099 16.4825L77.037 13.9217L74.6892 16.7392L77.7621 19.2999ZM76.5936 15.4849L76.9067 17.6763L80.8664 17.1106L80.5534 14.9192L76.5936 15.4849ZM77.3501 16.1131L75.0022 18.9305L78.0751 21.4912L80.423 18.6738L77.3501 16.1131ZM77.778 18.6411L74.804 16.2932L72.3254 19.4328L75.2994 21.7806L77.778 18.6411ZM75.5596 17.7205L75.4031 15.5292L71.4133 15.8141L71.5698 18.0055L75.5596 17.7205Z" fill="#252437" mask="url(#path-6-inside-2)"/>
<path d="M70.7486 41.8113V67.0117C70.7486 72.177 66.5224 76.4031 61.3571 76.4031H11.2694C6.10408 76.4031 1.87793 72.177 1.87793 67.0117V20.0544C1.87793 14.8891 6.10408 10.663 11.2694 10.663H46.0178" stroke="#0864EF" stroke-width="2" stroke-miterlimit="10"/>
<path d="M50.0868 35.8634C48.8346 36.8026 47.2694 37.2721 45.7041 37.2721C41.3215 37.2721 37.8779 33.8286 37.8779 29.4459C37.8779 25.6893 40.5388 22.5589 43.9824 21.7762" stroke="#0864EF" stroke-width="2" stroke-miterlimit="10"/>
<path d="M23.6321 41.6548L12.2059 62.316C11.1102 64.3508 12.5189 67.0117 15.0233 67.0117H56.0327C58.537 67.0117 60.1023 64.1943 58.6935 62.0029L53.2152 54.1767C52.2761 52.768 50.3978 52.455 48.9891 53.2376L45.2325 55.5854C43.9803 56.3681 42.2585 56.2115 41.1629 54.9593L28.6409 40.8722C27.2322 39.4635 24.5713 39.7765 23.6321 41.6548Z" stroke="#0864EF" stroke-width="2" stroke-miterlimit="10"/>
</svg>
