<svg width="95" height="63" viewBox="0 0 95 63" fill="none" xmlns="http://www.w3.org/2000/svg">
<path d="M93.4228 7.79067V55.0289C93.4228 58.6133 90.4784 61.4297 87.022 61.4297H8.03561C4.45114 61.4297 1.63477 58.4853 1.63477 55.0289V7.79067C1.63477 4.2062 4.57915 1.38983 8.03561 1.38983H86.894C90.4784 1.38983 93.4228 4.2062 93.4228 7.79067Z" stroke="#0864EF" stroke-width="2" stroke-miterlimit="10"/>
<path d="M46.1367 26.5568L56.3233 32.4907L46.1367 38.3257V26.5568Z" stroke="black" stroke-width="2"/>
<path d="M70.2285 16.6239H73.4289V19.8243" stroke="#0864EF" stroke-width="2" stroke-miterlimit="10"/>
<path d="M73.4289 19.8243V16.6239H70.2285" stroke="#0864EF" stroke-width="2" stroke-miterlimit="10"/>
<path d="M26.8303 46.1958H23.6299V42.9954" stroke="#0864EF" stroke-width="2" stroke-miterlimit="10"/>
<path d="M23.6299 19.8243V16.6238H26.8303" stroke="#0864EF" stroke-width="2" stroke-miterlimit="10"/>
<path d="M72.8692 50.2552C73.2408 49.8836 73.2409 49.2811 72.8692 48.9095C72.4976 48.5379 71.8951 48.5379 71.5235 48.9095C71.1518 49.2811 71.1518 49.8836 71.5235 50.2553C71.8951 50.6269 72.4976 50.6269 72.8692 50.2552Z" fill="#0864EF"/>
<path d="M73.1573 36.0288C65.1789 36.0288 58.6423 42.5654 58.6423 50.5438" stroke="#0864EF" stroke-width="2" stroke-miterlimit="10"/>
<path d="M73.157 40.5467C67.6779 40.5467 63.208 45.0166 63.208 50.4957" stroke="#0864EF" stroke-width="2" stroke-miterlimit="10"/>
<path d="M73.1573 44.9683C70.0813 44.9683 67.6301 47.4195 67.6301 50.4955" stroke="#0864EF" stroke-width="2" stroke-miterlimit="10"/>
</svg>
