<svg width="94" height="82" viewBox="0 0 94 82" fill="none" xmlns="http://www.w3.org/2000/svg">
<path d="M12.9521 33.0766V7.33312C12.9521 3.96482 15.719 1.3183 18.967 1.3183H50.1238C53.4921 1.3183 56.1386 4.08512 56.1386 7.33312V23.092" stroke="#0864EF" stroke-width="2" stroke-miterlimit="10"/>
<path d="M56.2597 62.5493V74.5789C56.2597 77.9472 53.4929 80.5938 50.2449 80.5938H19.0881C15.7198 80.5938 13.0732 77.8269 13.0732 74.5789V60.1433" stroke="#0864EF" stroke-width="2" stroke-miterlimit="10"/>
<path d="M13.5547 7.81433H56.26" stroke="#0864EF" stroke-width="2" stroke-miterlimit="10"/>
<path d="M13.5547 71.5715H56.26" stroke="#0864EF" stroke-width="2" stroke-miterlimit="10"/>
<path d="M28.5908 4.20544H39.4175" stroke="#0864EF" stroke-width="2" stroke-miterlimit="10" stroke-linecap="round"/>
<path d="M34.0046 78.7893C35.3333 78.7893 36.4105 77.7121 36.4105 76.3834C36.4105 75.0546 35.3333 73.9774 34.0046 73.9774C32.6758 73.9774 31.5986 75.0546 31.5986 76.3834C31.5986 77.7121 32.6758 78.7893 34.0046 78.7893Z" fill="#4F95FF"/>
<path d="M92.9492 28.746V56.5345C92.9492 58.4592 91.3853 60.023 89.4606 60.023H54.0934L47.1162 66.2785V28.746C47.1162 26.8212 48.6801 25.2574 50.6048 25.2574H89.4606C91.5056 25.2574 92.9492 26.8212 92.9492 28.746Z" stroke="#252437" stroke-width="2" stroke-miterlimit="10"/>
<path d="M61.7932 45.4671C63.3213 45.4671 64.56 44.2284 64.56 42.7003C64.56 41.1722 63.3213 39.9335 61.7932 39.9335C60.2651 39.9335 59.0264 41.1722 59.0264 42.7003C59.0264 44.2284 60.2651 45.4671 61.7932 45.4671Z" fill="#252437"/>
<path d="M70.094 45.4671C71.622 45.4671 72.8608 44.2284 72.8608 42.7003C72.8608 41.1722 71.622 39.9335 70.094 39.9335C68.5659 39.9335 67.3271 41.1722 67.3271 42.7003C67.3271 44.2284 68.5659 45.4671 70.094 45.4671Z" fill="#252437"/>
<path d="M78.3947 45.4671C79.9228 45.4671 81.1616 44.2284 81.1616 42.7003C81.1616 41.1722 79.9228 39.9335 78.3947 39.9335C76.8667 39.9335 75.6279 41.1722 75.6279 42.7003C75.6279 44.2284 76.8667 45.4671 78.3947 45.4671Z" fill="#252437"/>
<path d="M1.52441 38.3696V54.8503C1.52441 56.4141 2.72738 57.6171 4.29124 57.6171H32.6812L38.2149 62.6695V38.3696C38.2149 36.8058 37.0119 35.6028 35.448 35.6028H4.29124C2.72738 35.6028 1.52441 36.8058 1.52441 38.3696Z" stroke="#252437" stroke-width="2" stroke-miterlimit="10"/>
<path d="M5.73535 40.8959H33.4036" stroke="#252437" stroke-width="2" stroke-miterlimit="10" stroke-linecap="round"/>
<path d="M5.73535 46.0686H33.4036" stroke="#252437" stroke-width="2" stroke-miterlimit="10" stroke-linecap="round"/>
<path d="M5.73535 51.1211H23.7798" stroke="#252437" stroke-width="2" stroke-miterlimit="10" stroke-linecap="round"/>
</svg>
