<svg width="89" height="68" viewBox="0 0 89 68" fill="none" xmlns="http://www.w3.org/2000/svg">
<path d="M44.8292 25.4584C51.4599 25.4584 56.8352 20.0831 56.8352 13.4524C56.8352 6.82171 51.4599 1.44645 44.8292 1.44645C38.1985 1.44645 32.8232 6.82171 32.8232 13.4524C32.8232 20.0831 38.1985 25.4584 44.8292 25.4584Z" stroke="#252437" stroke-width="2" stroke-miterlimit="10"/>
<path d="M44.8292 66.6217C51.4599 66.6217 56.8352 61.2465 56.8352 54.6157C56.8352 47.985 51.4599 42.6098 44.8292 42.6098C38.1985 42.6098 32.8232 47.985 32.8232 54.6157C32.8232 61.2465 38.1985 66.6217 44.8292 66.6217Z" stroke="#0864EF" stroke-width="2" stroke-miterlimit="10"/>
<path d="M75.7013 66.6217C82.332 66.6217 87.7073 61.2465 87.7073 54.6157C87.7073 47.985 82.332 42.6098 75.7013 42.6098C69.0706 42.6098 63.6953 47.985 63.6953 54.6157C63.6953 61.2465 69.0706 66.6217 75.7013 66.6217Z" stroke="#0864EF" stroke-width="2" stroke-miterlimit="10"/>
<path d="M13.9562 66.6217C20.5869 66.6217 25.9621 61.2465 25.9621 54.6157C25.9621 47.985 20.5869 42.6098 13.9562 42.6098C7.32545 42.6098 1.9502 47.985 1.9502 54.6157C1.9502 61.2465 7.32545 66.6217 13.9562 66.6217Z" stroke="#0864EF" stroke-width="2" stroke-miterlimit="10"/>
<path d="M44.8291 30.6039V37.4644" stroke="#0864EF" stroke-width="2" stroke-miterlimit="10" stroke-linecap="round"/>
<path d="M45.3427 17.7403C48.1844 17.7403 50.4881 15.4366 50.4881 12.5949C50.4881 9.75313 48.1844 7.44945 45.3427 7.44945C42.5009 7.44945 40.1973 9.75313 40.1973 12.5949C40.1973 15.4366 42.5009 17.7403 45.3427 17.7403Z" stroke="#252437" stroke-width="2" stroke-miterlimit="10"/>
<path d="M36.9395 22.0281C38.8261 19.4554 41.9133 17.7402 45.3436 17.7402C48.7739 17.7402 51.8611 19.4554 53.7478 22.0281" stroke="#252437" stroke-width="2" stroke-miterlimit="10"/>
<path d="M61.9795 15.1676H68.84C72.6134 15.1676 75.7006 18.2548 75.7006 22.0281V37.4644" stroke="#0864EF" stroke-width="2" stroke-miterlimit="10" stroke-linecap="round"/>
<path d="M26.8197 15.1676H19.9592C16.1859 15.1676 13.0986 18.2548 13.0986 22.0281V37.4644" stroke="#0864EF" stroke-width="2" stroke-miterlimit="10" stroke-linecap="round"/>
</svg>
