<svg width="158" height="122" viewBox="0 0 158 122" fill="none" xmlns="http://www.w3.org/2000/svg">
<rect x="121.104" y="69.4758" width="36.4536" height="9.47916" rx="2" fill="#FF6B8D"/>
<rect x="56.9043" y="86.1973" width="93.3231" height="9.47916" rx="2" fill="#3C3CED"/>
<path d="M0.642578 22.6992H150.227" stroke="url(#paint0_linear)" stroke-miterlimit="10"/>
<path d="M1.21289 105.485H150.798" stroke="url(#paint1_linear)" stroke-miterlimit="10"/>
<path d="M138.238 9.56738V19.8442" stroke="url(#paint2_linear)" stroke-miterlimit="10"/>
<path d="M13.2031 10.1387V20.4155" stroke="url(#paint3_linear)" stroke-miterlimit="10"/>
<path d="M13.2031 25.554V102.63" stroke="url(#paint4_linear)" stroke-miterlimit="10"/>
<path d="M138.238 25.554V102.63" stroke="url(#paint5_linear)" stroke-miterlimit="10"/>
<path d="M95.5313 105.485H56.3652V120.9H95.5313V105.485Z" stroke="url(#paint6_linear)" stroke-miterlimit="10"/>
<path d="M43.918 120.9H108.091" stroke="url(#paint7_linear)" stroke-miterlimit="10"/>
<rect x="19.8711" y="53.8062" width="48.1676" height="9.47916" rx="2" fill="#3C3CED"/>
<rect x="70.4766" y="53.8062" width="35.4809" height="9.47916" rx="2" fill="#FF6B8D"/>
<rect x="19.8711" y="69.4758" width="48.1676" height="9.47916" rx="2" fill="#FF6B8D"/>
<rect x="70.4766" y="69.4758" width="48.189" height="9.47916" rx="2" fill="#3C3CED"/>
<rect x="19.8711" y="86.1973" width="34.7862" height="9.47916" rx="2" fill="#FF6B8D"/>
<rect x="31.8828" y="0.56543" width="41.0312" height="41.0312" fill="#3C3CED"/>
<rect x="80.0723" y="0.756592" width="41.0312" height="41.0312" fill="#3C3CED"/>
<g clip-path="url(#clip0)">
<path d="M110.145 24.5186L110.022 24.5644L109.539 25.7617L109.591 25.8848C111.054 29.3311 110.953 29.4339 110.711 29.6837L108.759 31.6611C108.679 31.7433 108.539 31.8012 108.418 31.8012C108.308 31.8012 107.976 31.8012 105.093 30.4453L104.977 30.3914L103.788 30.8888L103.74 31.0117C102.385 34.4976 102.246 34.4976 101.908 34.4976H99.1519C98.8158 34.4976 98.6627 34.4976 97.4056 31.0057L97.3583 30.8785L96.1752 30.3777L96.062 30.4265C94.1108 31.2808 92.9715 31.714 92.6745 31.714C92.554 31.714 92.4134 31.6578 92.3332 31.5758L90.3795 29.5928C90.1317 29.3389 90.0289 29.2326 91.5688 25.8582L91.6254 25.733L91.1416 24.537L91.0232 24.4895C87.5879 23.1108 87.5879 22.9764 87.5879 22.6173V19.8122C87.5879 19.4522 87.5879 19.3027 91.03 18.0217L91.1531 17.9765L91.637 16.784L91.585 16.6621C90.1217 13.2142 90.2145 13.1209 90.4636 12.8636L92.4125 10.8835C92.4942 10.802 92.6356 10.7437 92.7562 10.7437C92.8653 10.7437 93.1972 10.7437 96.0819 12.0989L96.1974 12.155L97.3875 11.6552L97.4338 11.5316C98.7902 8.04692 98.9296 8.04692 99.2672 8.04692H102.024C102.371 8.04692 102.514 8.04692 103.772 11.5411L103.819 11.6683L105.004 12.1659L105.117 12.1181C107.067 11.2614 108.205 10.8291 108.5 10.8291C108.62 10.8291 108.762 10.8835 108.843 10.9673L110.8 12.9547C111.046 13.2099 111.149 13.3142 109.606 16.6854L109.549 16.812L110.032 18.0029L110.147 18.0498C113.588 19.4357 113.588 19.5708 113.588 19.9303V22.7337C113.588 23.0936 113.588 23.2423 110.145 24.5186ZM100.588 16.723C98.1243 16.723 96.1202 18.7644 96.1202 21.2717C96.1202 23.7792 98.1244 25.8179 100.588 25.8179C103.05 25.8179 105.054 23.7787 105.054 21.2717C105.054 18.7648 103.05 16.723 100.588 16.723Z" fill="white"/>
</g>
<path d="M56.9004 15.981L62.5771 22.2195L56.5335 27.7189" stroke="white" stroke-width="3"/>
<path d="M50.1836 27.7212L44.2193 21.7569L49.9973 15.979" stroke="white" stroke-width="3"/>
<defs>
<linearGradient id="paint0_linear" x1="68.2547" y1="22.0613" x2="68.2733" y2="23.8071" gradientUnits="userSpaceOnUse">
<stop offset="0.189545" stop-color="#4B13E8"/>
<stop offset="0.973018" stop-color="#9F2DF8"/>
</linearGradient>
<linearGradient id="paint1_linear" x1="68.8251" y1="104.847" x2="68.8436" y2="106.593" gradientUnits="userSpaceOnUse">
<stop offset="0.189545" stop-color="#4B13E8"/>
<stop offset="0.973018" stop-color="#9F2DF8"/>
</linearGradient>
<linearGradient id="paint2_linear" x1="138.69" y1="3.01166" x2="139.786" y2="3.07882" gradientUnits="userSpaceOnUse">
<stop offset="0.189545" stop-color="#4B13E8"/>
<stop offset="0.973018" stop-color="#9F2DF8"/>
</linearGradient>
<linearGradient id="paint3_linear" x1="13.6551" y1="3.58294" x2="14.7509" y2="3.65011" gradientUnits="userSpaceOnUse">
<stop offset="0.189545" stop-color="#4B13E8"/>
<stop offset="0.973018" stop-color="#9F2DF8"/>
</linearGradient>
<linearGradient id="paint4_linear" x1="13.6551" y1="-23.614" x2="14.7549" y2="-23.605" gradientUnits="userSpaceOnUse">
<stop offset="0.189545" stop-color="#4B13E8"/>
<stop offset="0.973018" stop-color="#9F2DF8"/>
</linearGradient>
<linearGradient id="paint5_linear" x1="138.69" y1="-23.614" x2="139.79" y2="-23.605" gradientUnits="userSpaceOnUse">
<stop offset="0.189545" stop-color="#4B13E8"/>
<stop offset="0.973018" stop-color="#9F2DF8"/>
</linearGradient>
<linearGradient id="paint6_linear" x1="74.0683" y1="95.6513" x2="86.1632" y2="115.01" gradientUnits="userSpaceOnUse">
<stop offset="0.189545" stop-color="#4B13E8"/>
<stop offset="0.973018" stop-color="#9F2DF8"/>
</linearGradient>
<linearGradient id="paint7_linear" x1="72.9241" y1="120.262" x2="72.9673" y2="122.007" gradientUnits="userSpaceOnUse">
<stop offset="0.189545" stop-color="#4B13E8"/>
<stop offset="0.973018" stop-color="#9F2DF8"/>
</linearGradient>
<clipPath id="clip0">
<rect width="26" height="27" transform="matrix(1 0 0 -1 87.5879 34.7722)" fill="white"/>
</clipPath>
</defs>
</svg>
