<svg width="85" height="86" viewBox="0 0 85 86" fill="none" xmlns="http://www.w3.org/2000/svg">
<path d="M44.3385 11.5585C44.3385 6.14193 39.9751 1.77856 34.5585 1.77856C31.0979 1.77856 27.9382 3.5841 26.2832 6.44285C22.973 6.59331 20.1143 8.09792 18.3087 10.5053C17.2555 10.2044 16.2023 10.0539 15.149 10.0539C8.52876 10.0539 3.11217 15.4705 3.11217 22.0908C3.11217 24.1972 3.71402 26.1532 4.61678 27.9588C2.51033 30.3661 1.30664 33.5258 1.30664 36.9864C1.30664 39.9956 2.35987 42.8544 4.01494 45.2618C2.35987 47.3682 1.30664 49.9261 1.30664 52.7848C1.30664 59.2546 6.42231 64.5208 12.7417 64.8217C12.5912 65.8749 12.4407 66.9281 12.4407 68.1318C12.4407 77.1595 19.6629 84.3816 28.6905 84.3816C36.0631 84.3816 42.232 79.4164 44.3385 72.7961C44.4889 72.4952 44.4889 13.2136 44.4889 13.2136C44.4889 13.2136 44.3385 12.1604 44.3385 11.5585Z" stroke="#0864EF" stroke-width="2" stroke-miterlimit="10"/>
<path d="M26.5829 17.1256C25.5296 15.4705 24.7773 13.665 24.7773 11.5586C24.7773 9.60256 25.3792 7.79703 26.282 6.29242" stroke="#0864EF" stroke-width="2" stroke-miterlimit="10"/>
<path d="M15.1482 34.2781C8.52792 34.2781 3.11133 28.8615 3.11133 22.2412" stroke="#0864EF" stroke-width="2" stroke-miterlimit="10"/>
<path d="M28.5388 84.5321C19.5112 84.5321 12.2891 77.31 12.2891 68.2823C12.2891 59.2547 19.5112 52.0326 28.5388 52.0326" stroke="#0864EF" stroke-width="2" stroke-miterlimit="10"/>
<path d="M38.0185 72.4952C36.5139 75.9558 33.0533 78.5136 28.9908 78.5136C24.3265 78.5136 20.2641 75.2035 19.3613 70.6897" stroke="#0864EF" stroke-width="2" stroke-miterlimit="10"/>
<path d="M27.0359 35.0304C26.1332 35.4818 25.3809 36.3846 25.3809 37.5882C25.3809 39.0929 26.5845 40.447 28.2396 40.447H33.8067" stroke="#0864EF" stroke-width="2" stroke-miterlimit="10"/>
<path d="M10.9369 16.6743C9.28181 17.8779 8.07812 19.9844 8.07812 22.2413C8.07812 26.1533 11.2378 29.1625 14.9993 29.1625" stroke="#0864EF" stroke-width="2" stroke-miterlimit="10"/>
<path d="M30.7969 21.188C31.5492 20.4357 32.6024 19.9843 33.8061 19.9843C36.063 19.9843 38.019 21.7899 38.019 24.1972C38.019 26.6046 36.2135 28.4101 33.8061 28.4101" stroke="#0864EF" stroke-width="2" stroke-miterlimit="10"/>
<path d="M53.666 36.9864L82.1031 36.5351" stroke="#252437" stroke-width="2" stroke-miterlimit="10"/>
<path d="M53.666 48.7224H82.1031" stroke="#252437" stroke-width="2" stroke-miterlimit="10"/>
<path d="M53.666 60.7593H60.1358L75.0315 68.2823" stroke="#252437" stroke-width="2" stroke-miterlimit="10"/>
<path d="M75.4835 70.9906C76.7299 70.9906 77.7404 69.9801 77.7404 68.7337C77.7404 67.4872 76.7299 66.4767 75.4835 66.4767C74.237 66.4767 73.2266 67.4872 73.2266 68.7337C73.2266 69.9801 74.237 70.9906 75.4835 70.9906Z" fill="white" stroke="#252437" stroke-width="2" stroke-miterlimit="10"/>
<path d="M53.666 25.5514H60.1358L75.0315 18.0284" stroke="#252437" stroke-width="2" stroke-miterlimit="10"/>
<path d="M75.4835 19.8339C76.7299 19.8339 77.7404 18.8234 77.7404 17.577C77.7404 16.3305 76.7299 15.3201 75.4835 15.3201C74.237 15.3201 73.2266 16.3305 73.2266 17.577C73.2266 18.8234 74.237 19.8339 75.4835 19.8339Z" fill="white" stroke="#252437" stroke-width="2" stroke-miterlimit="10"/>
<path d="M81.0499 38.491C82.2963 38.491 83.3068 37.4806 83.3068 36.2341C83.3068 34.9877 82.2963 33.9772 81.0499 33.9772C79.8034 33.9772 78.793 34.9877 78.793 36.2341C78.793 37.4806 79.8034 38.491 81.0499 38.491Z" fill="white" stroke="#252437" stroke-width="2" stroke-miterlimit="10"/>
<path d="M81.0499 51.4307C82.2963 51.4307 83.3068 50.4202 83.3068 49.1738C83.3068 47.9273 82.2963 46.9169 81.0499 46.9169C79.8034 46.9169 78.793 47.9273 78.793 49.1738C78.793 50.4202 79.8034 51.4307 81.0499 51.4307Z" fill="white" stroke="#252437" stroke-width="2" stroke-miterlimit="10"/>
</svg>
